<svg height="512pt" viewBox="0 0 512 512" width="512pt" xmlns="http://www.w3.org/2000/svg"><path d="m467 377c0 24.902344-10.199219 47.402344-26.398438 63.601562-16.199218 16.199219-38.699218 26.398438-63.601562 26.398438-91.199219 0-173.699219-36.898438-233.402344-96.597656-59.699218-59.703125-96.597656-142.203125-96.597656-233.402344 0-24.902344 10.199219-47.402344 26.398438-63.601562 16.199218-16.199219 38.699218-26.398438 63.601562-26.398438 49.800781 0 90 40.199219 90 90 0 41.398438 16.800781 78.898438 43.800781 106.199219 27.300781 27 64.800781 43.800781 106.199219 43.800781 24.902344 0 47.402344 10.199219 63.601562 26.398438 16.199219 16.199218 26.398438 38.699218 26.398438 63.601562zm0 0" fill="#ec5569"/><path d="m440.601562 313.398438c16.199219 16.199218 26.398438 38.699218 26.398438 63.601562s-10.199219 47.402344-26.398438 63.601562c-16.199218 16.199219-38.699218 26.398438-63.601562 26.398438-91.199219 0-173.699219-36.898438-233.402344-96.597656l127.203125-127.203125c27.300781 27 64.800781 43.800781 106.199219 43.800781 24.902344 0 47.402344 10.199219 63.601562 26.398438zm0 0" fill="#e63950"/><path d="m497 150c0 24.902344-20.097656 45-45 45s-45-20.097656-45-45c0-12.597656-5.097656-23.699219-13.199219-31.800781-8.101562-8.101563-19.203125-13.199219-31.800781-13.199219-24.902344 0-45-20.097656-45-45s20.097656-45 45-45c37.199219 0 71.101562 15 95.398438 39.601562 24.601562 24.296876 39.601562 58.199219 39.601562 95.398438zm0 0" fill="#ec5569"/><path d="m497 150c0 24.902344-20.097656 45-45 45s-45-20.097656-45-45c0-12.597656-5.097656-23.699219-13.199219-31.800781l63.597657-63.597657c24.601562 24.296876 39.601562 58.199219 39.601562 95.398438zm0 0" fill="#e63950"/><path d="m468.5 44.097656c-27.300781-27.296875-65.101562-44.097656-106.5-44.097656-33 0-60 27-60 60s27 60 60 60c8.402344 0 15.601562 3.300781 21.300781 8.699219 5.398438 5.699219 8.699219 12.898437 8.699219 21.300781 0 33 27 60 60 60s60-27 60-60c0-41.398438-16.800781-78.601562-43.5-105.902344zm-16.5 135.902344c-16.5 0-30-13.5-30-30s-6.597656-31.5-17.699219-42.300781c-10.800781-11.101563-25.800781-17.699219-42.300781-17.699219s-30-13.5-30-30 13.5-30 30-30c33 0 63 13.5 84.902344 35.097656 21.597656 21.902344 35.097656 51.902344 35.097656 84.902344 0 16.5-13.5 30-30 30zm0 0" fill="#ffbfab"/><path d="m0 122h45v30h-45zm0 0" fill="#f89580"/><path d="m9.632812 256.222656-9.492187-28.445312 56.367187-18.796875 9.492188 28.449219zm0 0" fill="#f89580"/><path d="m89.527344 300.613281 16.640625 24.960938-50.867188 33.910156-16.640625-24.964844zm0 0" fill="#f89580"/><g fill="#ec806b"><path d="m164.980469 387.808594 21.210937 21.210937-38.582031 38.582031-21.210937-21.210937zm0 0"/><path d="m255.902344 508.617188-27.804688-11.28125 22.574219-55.617188 27.804687 11.277344zm0 0"/><path d="m362 467h30v45h-30zm0 0"/><path d="m464.464844 413.25 43.140625 43.140625-21.210938 21.207031-43.140625-43.136718zm0 0"/><path d="m467 362h45v30h-45zm0 0"/><path d="m488.664062 274.542969 16.640626 24.960937-50.054688 33.367188-16.640625-24.960938zm0 0"/></g><path d="m57.605469 6.394531 43.140625 43.136719-21.210938 21.210938-43.140625-43.136719zm0 0" fill="#f89580"/><path d="m214.53125 8.679688 24.960938 16.640624-33.371094 50.058594-24.960938-16.640625zm0 0" fill="#f89580"/><path d="m231.351562 166.371094-7.265624-29.09375 59.28125-14.824219 7.265624 29.09375zm0 0" fill="#f89580"/><path d="m306.351562 271.195312-23.996093-17.988281 37.648437-50.199219 23.992188 17.984376zm0 0" fill="#ec806b"/><path d="m409.359375 291.671875-29.414063-5.886719 12.347657-61.730468 29.414062 5.890624zm0 0" fill="#ec806b"/><path d="m137 182c-24.8125 0-45-20.1875-45-45s20.1875-45 45-45 45 20.1875 45 45-20.1875 45-45 45zm0 0" fill="#cc2e43"/><path d="m377 422c-24.8125 0-45-20.1875-45-45s20.1875-45 45-45 45 20.1875 45 45-20.1875 45-45 45zm0 0" fill="#ae2538"/><path d="m137 205.789062 21.210938 21.210938-21.210938 21.210938-21.210938-21.210938zm0 0" fill="#cc2e43"/><path d="m218.300781 317-21.300781 21.300781-21.300781-21.300781 21.300781-21.300781zm0 0" fill="#cc2e43"/><path d="m287 355.785156 21.210938 21.210938-21.210938 21.210937-21.210938-21.210937zm0 0" fill="#ae2538"/><path d="m272 295.785156 21.210938 21.210938-21.210938 21.210937-21.210938-21.210937zm0 0" fill="#ae2538"/><path d="m197 220.785156 21.210938 21.210938-21.210938 21.210937-21.210938-21.210937zm0 0" fill="#cc2e43"/><path d="m377 272c-37.199219 0-70.800781-15-95.398438-39.601562-24.601562-24.597657-39.601562-58.199219-39.601562-95.398438 0-57.898438-47.101562-105-105-105s-105 47.101562-105 105c0 95.097656 38.699219 181.199219 101.101562 243.898438 62.699219 62.402343 148.800782 101.101562 243.898438 101.101562 57.898438 0 105-47.101562 105-105s-47.101562-105-105-105zm0 180c-87 0-165.601562-35.398438-222.597656-92.402344-57.003906-56.996094-92.402344-135.597656-92.402344-222.597656 0-41.398438 33.601562-75 75-75s75 33.601562 75 75c0 45.601562 18.601562 86.699219 48.300781 116.699219 30 29.699219 71.097657 48.300781 116.699219 48.300781 41.398438 0 75 33.601562 75 75s-33.601562 75-75 75zm0 0" fill="#ffbfab"/><path d="m482 377c0 57.898438-47.101562 105-105 105-95.097656 0-181.199219-38.699219-243.898438-101.101562l21.300782-21.300782c56.996094 57.003906 135.597656 92.402344 222.597656 92.402344 41.398438 0 75-33.601562 75-75s-33.601562-75-75-75c-45.601562 0-86.699219-18.601562-116.699219-48.300781l21.300781-21.300781c24.597657 24.601562 58.199219 39.601562 95.398438 39.601562 57.898438 0 105 47.101562 105 105zm0 0" fill="#ffa78f"/><path d="m512 150c0 33-27 60-60 60s-60-27-60-60c0-8.402344-3.300781-15.601562-8.699219-21.300781l21-21c11.101563 10.800781 17.699219 25.800781 17.699219 42.300781s13.5 30 30 30 30-13.5 30-30c0-33-13.5-63-35.097656-84.902344l21-21h.597656c26.699219 27.300782 43.5 64.503906 43.5 105.902344zm0 0" fill="#ffa78f"/><path d="m186.496094 327.800781 21.300781-21.300781 10.5 10.5-21.300781 21.300781zm0 0" fill="#ae2538"/></svg>