<svg id="Layer_1" enable-background="new 0 0 512 512" height="512" viewBox="0 0 512 512" width="512" xmlns="http://www.w3.org/2000/svg"><g><g><path d="m365.067 256c0 8.534 6.918 15.453 15.453 15.453h35.144c17.891 0 35.566 4.101 51.539 12.16 4.762 2.403 10.232 3.608 16.014 3.222 15.32-1.023 27.74-13.483 28.718-28.806 1.148-17.989-13.099-32.934-30.841-32.934-4.806 0-9.355 1.097-13.41 3.055-16.276 7.858-33.952 12.398-52.026 12.398h-35.138c-8.534-.001-15.453 6.918-15.453 15.452z" fill="#b1e75a"/><path d="m155.672 356.328c-4.989-4.989-13.078-4.989-18.067 0l-20.546 20.546c-10.459 10.459-23.189 18.394-37.238 23.021-4.189 1.379-8.091 3.872-11.245 7.478-8.358 9.554-8.335 24.099.051 33.629 9.845 11.188 26.911 11.596 37.283 1.224 2.809-2.809 4.827-6.11 6.054-9.625 4.921-14.109 12.601-27.096 23.167-37.662l20.542-20.542c4.988-4.991 4.988-13.08-.001-18.069z" fill="#9ed643"/><path d="m340.979 171.021c5.221 5.221 13.685 5.221 18.906 0l21.5-21.499c10.945-10.945 24.266-19.248 38.967-24.09 4.383-1.444 8.467-4.052 11.767-7.826 8.746-9.998 8.722-25.218-.054-35.19-10.302-11.707-28.161-12.134-39.014-1.281-2.94 2.94-5.051 6.394-6.335 10.072-5.15 14.764-13.186 28.354-24.242 39.411l-21.496 21.496c-5.22 5.222-5.22 13.686.001 18.907z" fill="#9ed643"/><path d="m256 365.067c-8.534 0-15.453 6.918-15.453 15.453v35.144c0 17.891-4.101 35.566-12.16 51.539-2.403 4.762-3.608 10.232-3.222 16.014 1.023 15.32 13.483 27.74 28.806 28.718 17.989 1.148 32.934-13.099 32.934-30.841 0-4.806-1.097-9.355-3.055-13.41-7.858-16.276-12.398-33.952-12.398-52.026v-35.138c.001-8.534-6.918-15.453-15.452-15.453z" fill="#b1e75a"/><path d="m283.85 467.685c-7.858-16.276-12.398-33.952-12.398-52.026v-35.139c0-8.534-6.918-15.453-15.453-15.453s-15.453 6.918-15.453 15.453v35.139c0 18.074 4.54 35.749 12.398 52.026 1.958 4.055 3.055 8.604 3.055 13.41 0 11.43-6.208 21.402-15.431 26.749 4.001 2.327 8.558 3.783 13.403 4.092 17.989 1.148 32.934-13.099 32.934-30.841 0-4.806-1.097-9.355-3.055-13.41z" fill="#9ed643"/><circle cx="140.673" cy="141.703" fill="#ffc808" r="50.479"/><path d="m140.673 91.224c-5.391 0-10.581.854-15.453 2.419 20.318 6.528 35.026 25.573 35.026 48.06s-14.708 41.532-35.026 48.06c4.871 1.565 10.061 2.419 15.453 2.419 27.879 0 50.479-22.6 50.479-50.479s-22.601-50.479-50.479-50.479z" fill="#ffae08"/><circle cx="256" cy="256" fill="#62d152" r="164.829"/><path d="m256 91.171c-5.212 0-10.364.253-15.453.727 83.785 7.792 149.377 78.282 149.377 164.102s-65.591 156.31-149.376 164.102c5.088.473 10.241.727 15.453.727 91.033 0 164.829-73.796 164.829-164.829s-73.797-164.829-164.83-164.829z" fill="#48bd40"/><circle cx="317.811" cy="199.657" fill="#ffc808" r="33.481"/><path d="m317.811 166.176c-5.576 0-10.829 1.371-15.453 3.782 10.711 5.585 18.028 16.784 18.028 29.699s-7.317 24.115-18.028 29.699c4.624 2.411 9.877 3.782 15.453 3.782 18.491 0 33.481-14.99 33.481-33.481s-14.99-33.481-33.481-33.481z" fill="#ffae08"/><circle cx="197.079" cy="320.389" fill="#b1e75a" r="22.664"/><circle cx="368.131" cy="378.246" fill="#ffc808" r="30.905"/><path d="m368.131 347.341c-5.631 0-10.906 1.514-15.453 4.145 9.235 5.344 15.453 15.323 15.453 26.761s-6.218 21.416-15.453 26.761c4.547 2.631 9.822 4.145 15.453 4.145 17.069 0 30.905-13.837 30.905-30.905s-13.836-30.907-30.905-30.907z" fill="#ffae08"/><path d="m146.933 256c0 8.534-6.918 15.453-15.453 15.453h-35.144c-17.891 0-35.566 4.101-51.539 12.16-4.762 2.403-10.232 3.608-16.014 3.222-15.32-1.023-27.74-13.483-28.718-28.806-1.148-17.989 13.099-32.934 30.841-32.934 4.806 0 9.355 1.097 13.41 3.055 16.276 7.858 33.952 12.398 52.026 12.398h35.139c8.533-.001 15.452 6.918 15.452 15.452z" fill="#b1e75a"/><path d="m256 146.933c8.534 0 15.453-6.918 15.453-15.453v-35.144c0-17.891 4.101-35.566 12.16-51.539 2.403-4.762 3.608-10.232 3.222-16.014-1.023-15.32-13.483-27.74-28.806-28.718-17.989-1.148-32.934 13.099-32.934 30.841 0 4.806 1.097 9.355 3.055 13.41 7.858 16.276 12.398 33.952 12.398 52.026v35.139c-.001 8.533 6.918 15.452 15.452 15.452z" fill="#b1e75a"/><path d="m286.834 28.783c-1.023-15.32-13.483-27.74-28.806-28.718-6.4-.409-12.409 1.139-17.503 4.092 8.654 5.033 14.703 14.15 15.403 24.626.386 5.782-.819 11.252-3.222 16.014-8.059 15.973-12.16 33.648-12.16 51.539v35.144c0 8.534 6.918 15.453 15.453 15.453s15.453-6.918 15.453-15.453v-35.144c0-17.891 4.101-35.566 12.16-51.539 2.403-4.762 3.609-10.232 3.222-16.014z" fill="#9ed643"/></g><path d="m481.113 225.113c-4.803 0-9.349 1.096-13.402 3.053-.717.346-1.441.678-2.163 1.011 9.842 5.634 16.287 16.527 15.5 28.851-.673 10.54-6.763 19.723-15.486 24.759.556.269 1.115.532 1.667.81 4.76 2.401 10.226 3.606 16.005 3.22 15.311-1.023 27.724-13.475 28.701-28.789 1.148-17.979-13.091-32.915-30.822-32.915z" fill="#9ed643"/></g></svg>